# xmcd
#
# Track frame offsets:
#	150
#	7249
#	23127
#	45529
#	67447
#	81323
#	94319
#	107030
#	125861
#	145534
#	159236
#	172366
#	186059
#	202177
#	217002
#	229159
#
# Disc length: 3293 seconds
# Revision: 4
# Processed by: cddbd v1.5.2PL0 Copyright (c) Steve Scherf et al.
# Submitted via: dBpowerAMP V12.0
#
DISCID=f50cdb10
DTITLE=George Strait - For The Last Time: Live From The Astrodome
DYEAR=2003
DGENRE=Country*
TTITLE0=Deep In The Heart Of Texas [live]
TTITLE1=Write This Down [live]
TTITLE2=I Can Still Make Cheyenne [live]
TTITLE3=Heartland [live]
TTITLE4=Love Without End Amen [live]
TTITLE5=Check Yes Or No [live]
TTITLE6=The Fireman [live]
TTITLE7=Run [live]
TTITLE8=Murder Ön Music Row [live]
TTITLE9=The Chair [live]
TTITLE10=She'll Leave You With A Smile [live]
TTITLE11=Amarillo By Morning [live]
TTITLE12=Living And Living Well [live]
TTITLE13=Take Me Back To Tulsa [live]
TTITLE14=Blue Clear Sky [live]
TTITLE15=The Cowboy Rides Away [live]
EXTD=
EXTT0=
EXTT1=
EXTT2=
EXTT3=
EXTT4=
EXTT5=
EXTT6=
EXTT7=
EXTT8=
EXTT9=
EXTT10=
EXTT11=
EXTT12=
EXTT13=
EXTT14=
EXTT15=
PLAYORDER=
